<svg width="24" height="24" viewBox="0 0 24 24" fill="none" xmlns="http://www.w3.org/2000/svg">
<path d="M0 9.70704C0 15.0593 4.35479 19.4141 9.70704 19.4141C11.8236 19.4141 13.7577 18.7329 15.3512 17.5895L21.336 23.5864C21.6158 23.8662 21.9807 24 22.37 24C23.1972 24 23.7689 23.3796 23.7689 22.5646C23.7689 22.1754 23.6229 21.8226 23.3675 21.5672L17.4192 15.5824C18.6721 13.9524 19.4141 11.9209 19.4141 9.70704C19.4141 4.35479 15.0593 0 9.70704 0C4.35479 0 0 4.35479 0 9.70704ZM2.08008 9.70704C2.08008 5.49823 5.49823 2.08008 9.70704 2.08008C13.9159 2.08008 17.334 5.49823 17.334 9.70704C17.334 13.9159 13.9159 17.334 9.70704 17.334C5.49823 17.334 2.08008 13.9159 2.08008 9.70704Z" fill="#979797"/>
</svg>
